<?xml version="1.0" encoding="utf-8"?>
<!-- Generator: Adobe Illustrator 16.2.0, SVG Export Plug-In . SVG Version: 6.00 Build 0)  -->
<!DOCTYPE svg PUBLIC "-//W3C//DTD SVG 1.1//EN" "http://www.w3.org/Graphics/SVG/1.1/DTD/svg11.dtd">
<svg version="1.1" id="Слой_1" xmlns="http://www.w3.org/2000/svg" xmlns:xlink="http://www.w3.org/1999/xlink" x="0px" y="0px"
	 width="512px" height="512px" viewBox="0 0 512 512" enable-background="new 0 0 512 512" xml:space="preserve">
<g>
	<g>
		<polygon fill="#FFFF00" points="22.876,112.539 22.876,206.552 72.337,256 22.876,305.462 22.876,399.461 489.124,399.461 
			489.124,112.539 		"/>
	</g>
	<g>
		<path d="M271.983,300.192l-6.293-19.967h-41.992c-0.847,2.418-1.839,5.536-2.991,9.35c-1.156,3.807-2.205,7.347-3.148,10.617
			h11.171v9.751h-33.186v-9.751h8.961c2.509-7.553,5.171-15.538,7.942-23.934c2.777-8.405,5.585-16.859,8.418-25.368
			c2.833-8.522,5.61-16.879,8.333-25.127c2.722-8.248,5.293-16.094,7.706-23.549h16.678c5.135,15.959,10.476,32.32,16.045,49.07
			c5.554,16.752,10.902,33.045,16.044,48.907h8.801v9.751h-33.337v-9.751H271.983z M262.548,270.156
			c-2.309-7.656-4.673-15.276-7.084-22.884c-2.406-7.608-4.818-15.223-7.231-22.886c-0.522-1.779-1.046-3.545-1.577-5.274
			c-0.522-1.719-1.053-3.484-1.571-5.271h-0.311c-0.104,0.434-0.348,1.322-0.706,2.669c-0.372,1.382-1.237,4.05-2.602,8.034
			c-0.84,2.51-1.857,5.653-3.063,9.441c-1.206,3.765-2.467,7.748-3.771,11.952c-1.316,4.189-2.625,8.417-3.935,12.656
			c-1.311,4.252-2.491,8.102-3.546,11.562H262.548z"/>
		<path d="M368.561,281.955l0.151,13.212c3.984,2.096,8.016,3.479,12.115,4.166c4.088,0.683,8.022,1.024,11.794,1.024
			c8.807,0,15.41-1.864,19.82-5.586c4.404-3.709,6.608-8.473,6.608-14.235c0-3.466-0.614-6.262-1.814-8.407
			c-1.2-2.155-2.882-3.94-5.037-5.354c-2.146-1.419-4.74-2.594-7.779-3.538c-3.04-0.938-6.396-1.938-10.063-2.985
			c-4.616-1.267-8.996-2.619-13.138-4.093c-4.143-1.469-7.785-3.277-10.928-5.421c-3.149-2.158-5.641-4.776-7.48-7.871
			c-1.833-3.106-2.747-6.944-2.747-11.562c0-4.934,0.944-9.282,2.839-13.06c1.882-3.775,4.452-6.967,7.699-9.586
			c3.253-2.626,7.054-4.594,11.409-5.908c4.349-1.312,8.991-1.976,13.918-1.976c2.2,0,4.587,0.123,7.157,0.33
			c2.57,0.206,5.135,0.548,7.705,1.022c2.571,0.463,5.135,1.133,7.706,1.962c2.57,0.841,4.952,1.895,7.157,3.143l0.312,21.088
			h-10.223l-0.311-13.682c-2.412-1.06-5.537-1.814-9.361-2.289c-3.825-0.475-7.267-0.707-10.301-0.707
			c-3.046,0-5.902,0.342-8.576,1.023c-2.681,0.683-5.008,1.755-6.999,3.222c-1.991,1.481-3.563,3.333-4.715,5.586
			c-1.157,2.255-1.73,4.959-1.73,8.102c0,2.729,0.652,5.057,1.962,7.006c1.315,1.938,3.07,3.642,5.27,5.104
			c2.204,1.461,4.799,2.729,7.791,3.777c2.983,1.047,6.146,1.985,9.507,2.832c4.198,1.048,8.37,2.248,12.512,3.624
			c4.131,1.352,7.864,3.181,11.16,5.495c3.308,2.303,5.987,5.274,8.027,8.893c2.048,3.606,3.064,8.254,3.064,13.919
			c0,5.549-1.017,10.274-3.064,14.148c-2.04,3.888-4.824,7.091-8.333,9.6c-3.521,2.511-7.687,4.344-12.511,5.501
			c-4.818,1.152-10.014,1.731-15.563,1.731c-5.878,0-11.854-0.579-17.938-1.731c-6.078-1.157-11.744-3.245-16.983-6.291
			l-0.164-21.229H368.561z"/>
		<polygon points="318.373,300.192 308.471,300.192 308.471,309.943 341.978,309.943 341.978,300.192 331.75,300.192 		"/>
		<polygon points="331.75,212.424 341.978,212.424 341.978,202.215 308.471,202.215 308.471,212.424 318.373,212.424 		"/>
		<rect x="318.373" y="227.542" width="13.377" height="17.227"/>
		<rect x="318.373" y="267.757" width="13.377" height="17.226"/>
		<rect x="318.373" y="297.773" width="13.377" height="12.17"/>
		<rect x="318.373" y="202.215" width="13.377" height="12.17"/>
	</g>
</g>
</svg>
