<?xml version="1.0" encoding="utf-8"?>
<!-- Generator: Adobe Illustrator 16.2.0, SVG Export Plug-In . SVG Version: 6.00 Build 0)  -->
<!DOCTYPE svg PUBLIC "-//W3C//DTD SVG 1.1//EN" "http://www.w3.org/Graphics/SVG/1.1/DTD/svg11.dtd">
<svg version="1.1" id="Слой_1" xmlns="http://www.w3.org/2000/svg" xmlns:xlink="http://www.w3.org/1999/xlink" x="0px" y="0px"
	 width="512px" height="512px" viewBox="0 0 512 512" enable-background="new 0 0 512 512" xml:space="preserve">
<path fill="none" d="z"/>
<g>
	<polygon fill="#F1FF15" points="172.919,491.579 45.633,384.78 16.781,221.148 99.861,77.245 256,20.421 412.139,77.245 
		495.219,221.148 466.367,384.78 339.08,491.579 	"/>
	<g>
		<g>
			<path d="M228.154,329.254L218.066,290.1h-49.848l-10.49,39.154l13.113,0.596v2.42h-27.846v-2.615l11.904-0.4l36.93-140.059h3.023
				l36.326,140.059l14.127,0.4v2.615h-32.08v-2.615L228.154,329.254z M193.244,194.239l-24.412,93.031h48.424l-23.807-93.031
				H193.244z"/>
			<path d="M239.736,359.842l16.958-0.614c0-45.204,0-151.777,0-196.972l-15.954-0.614v-2.42h34.92v2.42l-16.146,0.614
				c0,45.194,0,151.768,0,196.972l16.957,0.614v2.42h-36.735V359.842z"/>
			<path d="M341.109,226.524v-9.464c0-15.748-9.883-26.236-26.432-26.236c-16.752,0-26.031,10.089-26.031,26.236v16.733
				c0,33.31,56.902,14.137,56.902,51.672v16.938c0,19.797-10.293,30.891-30.676,30.891s-30.666-11.504-30.666-30.891v-11.288h3.025
				v11.288c0,17.963,8.879,28.266,27.641,28.266c18.771,0,27.65-10.099,27.65-28.266v-16.938c0-34.715-56.91-15.348-56.91-51.672
				v-16.733c0-16.958,10.498-28.256,27.855-28.861c12.508-0.205,22.791,4.839,27.641,16.538h0.4l0.205-15.328h2.43v37.115H341.109z"
				/>
		</g>
		<defs>
			<filter id="Adobe_OpacityMaskFilter" filterUnits="userSpaceOnUse" x="53.599" y="59.867" width="404.8" height="398.661">
				<feColorMatrix  type="matrix" values="1 0 0 0 0  0 1 0 0 0  0 0 1 0 0  0 0 0 1 0"/>
			</filter>
		</defs>
		<mask maskUnits="userSpaceOnUse" x="53.599" y="59.867" width="404.8" height="398.661" id="SVGID_1_">
			<g filter="url(#Adobe_OpacityMaskFilter)">
				<radialGradient id="SVGID_2_" cx="256" cy="267.3613" r="210.4531" gradientUnits="userSpaceOnUse">
					<stop  offset="0" style="stop-color:#000000"/>
					<stop  offset="0.3128" style="stop-color:#020202"/>
					<stop  offset="0.45" style="stop-color:#090909"/>
					<stop  offset="0.5529" style="stop-color:#161616"/>
					<stop  offset="0.6388" style="stop-color:#282828"/>
					<stop  offset="0.7139" style="stop-color:#3F3F3F"/>
					<stop  offset="0.7816" style="stop-color:#5C5C5C"/>
					<stop  offset="0.8438" style="stop-color:#7E7E7E"/>
					<stop  offset="0.9015" style="stop-color:#A6A6A6"/>
					<stop  offset="0.9536" style="stop-color:#D1D1D1"/>
					<stop  offset="1" style="stop-color:#FFFFFF"/>
				</radialGradient>
				<path fill="url(#SVGID_2_)" d="M466.455,267.367c0,116.223-94.221,210.445-210.465,210.445
					c-116.223,0-210.445-94.223-210.445-210.445c0-116.234,94.222-210.456,210.445-210.456
					C372.234,56.911,466.455,151.133,466.455,267.367z"/>
			</g>
		</mask>
		<g mask="url(#SVGID_1_)">
			<polygon fill="none" stroke="#000000" stroke-width="2" stroke-miterlimit="10" points="186.062,457.527 78.923,367.628 
				54.647,229.9 124.575,108.759 256,60.931 387.426,108.759 457.352,229.9 433.068,367.628 325.928,457.527 			"/>
			<polyline fill="none" stroke="#000000" stroke-width="2" stroke-linejoin="round" stroke-miterlimit="10" points="
				433.068,367.628 124.575,108.759 325.928,457.527 256,60.931 186.062,457.527 387.426,108.759 			"/>
			<polyline fill="none" stroke="#000000" stroke-width="2" stroke-linejoin="round" stroke-miterlimit="10" points="
				433.068,367.628 54.647,229.9 457.352,229.9 78.923,367.628 387.426,108.759 			"/>
			<polygon fill="none" stroke="#000000" stroke-width="2" stroke-linejoin="round" stroke-miterlimit="10" points="
				124.575,108.759 387.426,108.759 433.068,367.628 186.062,457.527 54.647,229.9 256,60.931 457.352,229.9 325.928,457.527 
				78.923,367.628 			"/>
		</g>
	</g>
</g>
</svg>
